<?xml version="1.0" encoding="UTF-8"?>
<svg width="1024px" height="1024px" viewBox="0 0 1024 1024" version="1.1" xmlns="http://www.w3.org/2000/svg" xmlns:xlink="http://www.w3.org/1999/xlink">
    <!-- Generator: Sketch 43.2 (39069) - http://www.bohemiancoding.com/sketch -->
    <title>Desktop</title>
    <desc>Created with Sketch.</desc>
    <defs></defs>
    <g id="Welcome" stroke="none" stroke-width="1" fill="none" fill-rule="evenodd">
        <g id="Desktop">
            <path d="M356,771 L668,771 L668,806.001158 C668,815.941644 659.934464,824 649.991109,824 L374.008891,824 C364.062855,824 356,815.950441 356,806.001158 L356,771 Z" id="Rectangle-3" fill="#E7D6D6"></path>
            <rect id="Rectangle-4" fill="#E5E5DA" x="356" y="546" width="312" height="198"></rect>
            <path d="M423.5,619.5 L423.5,735.5" id="Line" stroke="#D5D1D1" stroke-linecap="square"></path>
            <path d="M459.5,573.5 L459.5,705.5" id="Line" stroke="#D5D1D1" stroke-linecap="square"></path>
            <path d="M507.5,606.5 L507.5,682.5" id="Line" stroke="#D5D1D1" stroke-linecap="square"></path>
            <path d="M585.5,564.5 L585.5,730.5" id="Line" stroke="#D5D1D1" stroke-linecap="square"></path>
            <path d="M542.5,583.5 L542.5,718.5" id="Line" stroke="#D5D1D1" stroke-linecap="square"></path>
            <path d="M635.5,585.5 L635.5,727.5" id="Line" stroke="#D5D1D1" stroke-linecap="square"></path>
            <path d="M389.5,566.5 L389.5,702.5" id="Line" stroke="#D5D1D1" stroke-linecap="square"></path>
            <polygon id="Rectangle-2" fill="#C6C5C5" points="477 824 548 824 537.711107 888.235062 548 1024 477 1024 489.176907 888.235062"></polygon>
            <path d="M356,546 L668,546 L668,639 C668,639 633.072542,627.400151 608.953013,639 C584.833485,650.599849 579.330703,682.926059 550.41909,680.678262 C530.810372,679.153739 513.124564,636.99268 493.999078,626.267999 C474.873592,615.543318 434.904591,622.806788 418.039164,626.267999 C394.917398,631.013168 356,626.267999 356,626.267999 L356,546 Z" id="Rectangle-5" fill="#F1FF2F"></path>
        </g>
    </g>
</svg>